<svg xmlns="http://www.w3.org/2000/svg" xml:space="preserve" width="6.56944in" height="1.45833in" version="1.1" viewBox="0 0 6569 1458">
 <defs>
  <style type="text/css">
   <![CDATA[
    .fil0 {fill:#ED3237;fill-rule:nonzero}
   ]]>
  </style>
 </defs>
 <g>
  <path class="fil0" d="M2801 976c0,337 -320,482 -574,482 -254,0 -570,-145 -570,-482l0 -504c0,-337 316,-482 570,-482 254,0 574,145 574,482l0 504zm-335 -474c0,-137 -98,-216 -239,-216 -139,0 -237,79 -237,216l0 444c0,137 98,216 237,216 141,0 239,-79 239,-216l0 -444z"/>
  <path class="fil0" d="M1198 773c0,135 -46,205 -185,205l-83 0 0 -600 83 0c140,0 185,78 185,214l0 181zm-601 205l-85 0c-140,0 -185,-70 -185,-205l0 -181c0,-135 46,-214 185,-214l85 0 0 600zm415 -875l-76 0 0 -97 -348 0 0 97 -76 0c-252,0 -513,80 -513,489l0 183c0,400 261,480 513,480l76 0 0 180 348 0 0 -180 76 0c252,0 513,-80 513,-480l0 -183c0,-408 -261,-489 -513,-489z"/>
  <polygon class="fil0" points="4105,6 3704,6 3306,621 3306,6 2951,6 2951,1436 3306,1436 3306,740 3760,1436 4156,1436 3624,674 "/>
  <polygon class="fil0" points="5104,6 4853,649 4573,6 4183,6 4689,1007 4517,1436 4895,1436 5483,6 "/>
  <path class="fil0" d="M6250 1012c-17,103 -109,146 -225,146 -142,0 -238,-77 -238,-215l0 -440c0,-137 97,-215 238,-215 116,0 208,43 225,146 0,0 0,1 0,1l332 0 0 -2c-3,-274 -293,-446 -558,-446 -255,0 -575,148 -575,485l0 500c0,337 320,485 575,485 264,0 554,-172 558,-446l0 -2 -332 0c0,0 0,1 0,1z"/>
 </g>
</svg>
